<svg id="Capa_1" data-name="Capa 1" xmlns="http://www.w3.org/2000/svg" viewBox="0 0 733 584"><defs><style>.cls-1{fill:#ffc107;}.cls-2{fill:#28a745;}</style></defs><title>agregar_clave</title><path class="cls-1" d="M512,248A176.09,176.09,0,0,1,303.17,420.93l-24,27A24,24,0,0,1,261.22,456H224v40a24,24,0,0,1-24,24H160v40a24,24,0,0,1-24,24H24A24,24,0,0,1,0,560V481.94a24,24,0,0,1,7-17l161.8-161.8A176,176,0,1,1,512,248ZM336,200a48,48,0,1,0,48-48A48,48,0,0,0,336,200Z"/><path class="cls-2" d="M716.29,106.66H641.07V19.39C641.07,8.68,633.59,0,624.36,0H607.64c-9.23,0-16.71,8.68-16.71,19.39v87.27H515.71c-9.23,0-16.71,8.69-16.71,19.39v19.4c0,10.7,7.48,19.39,16.71,19.39h75.22v87.27c0,10.71,7.48,19.39,16.71,19.39h16.72c9.23,0,16.71-8.68,16.71-19.39V164.84h75.22c9.23,0,16.71-8.69,16.71-19.39v-19.4C733,115.35,725.52,106.66,716.29,106.66Z"/></svg>