<svg id="Capa_1" data-name="Capa 1" xmlns="http://www.w3.org/2000/svg" viewBox="0 0 733 512"><defs><style>.cls-1{fill:#ffc107;}.cls-2{fill:#dc3545;}</style></defs><title>eliminar_clave</title><path class="cls-1" d="M512,248A176.09,176.09,0,0,1,303.17,420.93l-24,27A24,24,0,0,1,261.22,456H224v40a24,24,0,0,1-24,24H160v40a24,24,0,0,1-24,24H24A24,24,0,0,1,0,560V481.94a24,24,0,0,1,7-17l161.8-161.8A176,176,0,1,1,512,248ZM336,200a48,48,0,1,0,48-48A48,48,0,0,0,336,200Z" transform="translate(0 -72)"/><path class="cls-2" d="M716.29,107H515.71c-9.23,0-16.71,8.58-16.71,19.17v19.16c0,10.59,7.48,19.17,16.71,19.17H716.29c9.23,0,16.71-8.58,16.71-19.17V126.17C733,115.58,725.52,107,716.29,107Z" transform="translate(0 -72)"/></svg>