<svg id="Capa_1" data-name="Capa 1" xmlns="http://www.w3.org/2000/svg" viewBox="0 0 712.72 581.17"><defs><style>.cls-1{fill:#ffc107;}.cls-2{fill:#007bff;}</style></defs><title>modificar_clave</title><path class="cls-1" d="M512,248A176.09,176.09,0,0,1,303.17,420.93l-24,27A24,24,0,0,1,261.22,456H224v40a24,24,0,0,1-24,24H160v40a24,24,0,0,1-24,24H24A24,24,0,0,1,0,560V481.94a24,24,0,0,1,7-17l161.8-161.8A176,176,0,1,1,512,248ZM336,200a48,48,0,1,0,48-48A48,48,0,0,0,336,200Z" transform="translate(0 -2.83)"/><path class="cls-2" d="M629.13,42.33l48.36,54.24-105,117.78-43.12,5.34c-5.78.71-10.65-4.76-10-11.23l4.8-48.4Zm78.28-8.08L684.7,8.79a16.78,16.78,0,0,0-25.66,0l-21.36,24L686,87l21.37-24A22.15,22.15,0,0,0,707.41,34.25Z" transform="translate(0 -2.83)"/></svg>